<svg id="Layer_1" data-name="Layer 1" xmlns="http://www.w3.org/2000/svg" viewBox="0 0 111.15 94"><path d="M37.3.7c4.2.7,3.2,2.3-1.5,2.3C29.4,3,19.5,5.6,12.2,9.3c-5.6,2.8-6.1,3.2-3.8,3.5,1.4.2,2.6.6,2.6.8s-2.5,2.8-5.5,5.6L0,24.2l3.2,2.1c5.9,4.1,9.2,15.3,7.4,25.2C10,54.5,9.5,55,7.2,55,3.6,55,2,56.7,2,60.5S3.6,66,7.2,66c2.2,0,2.8.5,2.8,2.2.1,3.4,3.4,10,6.6,13,4.1,3.8,7.5,4.8,16,4.8H40v8.5l2.5-4.2L45,86.1l21.8-.3c21.8-.3,21.9-.3,25.9-3,4.3-2.9,8.3-9.6,8.3-14,0-2.2.5-2.7,2.7-3,5.6-.6,5.5-10.8-.1-10.8-2.6,0-3.6-2.8-3.6-10.7,0-4.8-2.3-11.3-3.9-11.3-.6,0-1.1.7-1.1,1.5a19,19,0,0,1-2,5.6l-2.1,4,2.5,3c3.2,3.7,4,8,3.4,17.5-.5,8-1.9,10.9-7.2,14.8-2.6,2-4.2,2.1-32.4,2.4-29.3.3-29.8.2-34.2-2-6.7-3.4-8.5-7.3-8.5-18.3,0-9.9,1.5-13.9,6.8-17.9,4-2.9,13.1-2.9,17.3.1,7.5,5.3,23.3,5.7,32.6.8a28,28,0,0,1,10.2-3c4.6-.2,5.3-.6,9.4-5,3.9-4.4,4.3-5.2,3.7-8.4C93,20,85.3,9,81.3,9c-1.3,0-1.4.3-.5,1.2,2.7,2.7.9,2.7-2.5-.1a52.92,52.92,0,0,0-9.5-5.6C62.5,1.6,51.1-.2,52.4,1.8c1,1.6-2,1.5-6.9-.3A23.23,23.23,0,0,0,38,.2C35,.3,34.9.4,37.3.7ZM62.2,5.9c5.3,2.3,12.1,9,14.8,14.8A23.32,23.32,0,0,1,79,26a1.08,1.08,0,0,0,1,1c.6,0,1-1.1,1-2.4a4.33,4.33,0,0,1,1.1-3.2c1.8-1.1.7,12.3-1.1,14a12.09,12.09,0,0,1-4.7,2.1c-2.8.6-3.3.4-3.3-1.3a8.06,8.06,0,0,0-1.9-4.3l-1.8-2.3.3,5.4.4,5.5-1.5-3.2c-1.4-3.1-5.4-6.7-6.4-5.8-.2.3.3,1.3,1.2,2.3,2.5,2.8,2.1,6.1-.8,7.2-3.8,1.5-7.2-.4-10.3-5.7C45.7,24,35.8,16.5,25.9,15.3c-5.8-.7-5.5-2.3.4-2.3,8.1,0,20.1,4,28,9.4,2,1.4,3.7,2,3.7,1.4,0-2.3-9.6-10.4-17-14.3l-7.5-4,3.8-.3c5.2-.4,15.3,3.1,22.7,7.9,3.3,2.1,6.3,3.9,6.5,3.9,1.7,0-5.5-8.5-8.9-10.5C54.4,4.5,54,4,55.7,4A20.84,20.84,0,0,1,62.2,5.9ZM19.4,13.1a36.56,36.56,0,0,0-4.6,4.2c-1.1,1.8-1.8.4-1.1-2.2.3-1.3,2-2.9,3.7-3.7C22.6,9.2,23.5,9.8,19.4,13.1Zm67.8,7.4c3.3,6,3.6,10.5.8,13-2,1.8-2,1.8-1.4-2.7.7-5.2-1.1-9.6-5-12.2-3.4-2.2-3.3-3.8.2-3.4C83.9,15.4,85.1,16.6,87.2,20.5Zm-52.6.3c4.1,2.1,12,9.9,11,10.9-.3.3-1.7-.2-3.2-1.1-3.3-2.2-4.2-1.4-2,1.8,2.5,3.9,1.9,5.5-.8,2-2.9-3.5-13.5-8.7-21.8-10.5-8.6-1.8-7.2-3.3,2.5-2.6,7.9.6,8,.6,3.7-.7-7.7-2.2-7.8-2.6-.5-2.3C28,18.6,31.9,19.4,34.6,20.8ZM17.7,28c2.5,0,14.6,5.1,18,7.6,3.7,2.8,5.6,3,7.3.9,2-2.4,4.3-1.7,6.8,2.1A18.47,18.47,0,0,1,52,43.1c0,1.8-4.5.8-10-2.1-6.9-3.8-16.6-4.2-21.5-1-4.4,2.9-5.2,2.5-6.5-3a31.33,31.33,0,0,0-4.2-9.1c-2.2-3-2.6-4.4-1.9-5.3.9-1,1.9-.6,4.7,2C14.5,26.5,16.8,28,17.7,28Z"/><path d="M25.4,53.4A10.12,10.12,0,0,0,19,63.3C19,68.7,24.2,74,29.4,74c4.4,0,11.9-6,10-8-.8-.8-1.9-.4-4.2,1.4-5.6,4.8-12.5,2.3-12.5-4.6A6.68,6.68,0,0,1,34,58a6.92,6.92,0,0,0,4,2c1.8,0,1.9-.3,1-2C36.6,53.5,30.1,51.3,25.4,53.4Z"/><path d="M78.5,52.7c-3,.7-7.3,5.2-8,8.3C69.2,67,74.9,74,81,74c3.1,0,7.5-2.5,9.3-5.3,2.7-4.1-.5-4.5-4.5-.5-2.5,2.5-7,2.3-9.6-.5-2.9-3-2.8-6.2.3-9.2,2.9-3,5.4-3.2,8.8-.5C88,60.2,91,60.7,91,59c0-1.5-5-6-6.6-6a12.66,12.66,0,0,1-2.6-.4A9.36,9.36,0,0,0,78.5,52.7Z"/><path d="M46.2,76.2c.2,1.5,1,2.3,2.3,2.3,3,0,2.7-3.9-.3-4.3C46.2,73.9,45.9,74.2,46.2,76.2Z"/><path d="M53.2,76.2c.4,3,4.3,3.3,4.3.3,0-1.3-.8-2.1-2.3-2.3C53.2,73.9,52.9,74.2,53.2,76.2Z"/><path d="M60.3,75.6a2.71,2.71,0,0,0,.5,2.6c1.6,1.6,4.2.2,4.2-2.2S61.2,73.2,60.3,75.6Z"/></svg>