<svg width="27" height="28" viewBox="0 0 27 28" fill="none" xmlns="http://www.w3.org/2000/svg">
<path d="M26.8483 14.0264C26.8483 12.8982 26.7569 12.075 26.5592 11.2212H13.6981V16.3133H21.2473C21.0951 17.5788 20.2732 19.4845 18.4468 20.7651L18.4212 20.9356L22.4876 24.0911L22.7693 24.1193C25.3567 21.7257 26.8483 18.2038 26.8483 14.0264Z" fill="#4285F4"/>
<path d="M13.6981 27.4427C17.3965 27.4427 20.5014 26.2229 22.7693 24.119L18.4468 20.7648C17.29 21.5729 15.7376 22.137 13.6981 22.137C10.0757 22.137 7.00128 19.7434 5.90532 16.4351L5.74468 16.4487L1.51636 19.7266L1.46106 19.8806C3.71362 24.3629 8.34056 27.4427 13.6981 27.4427Z" fill="#34A853"/>
<path d="M5.90536 16.4351C5.61619 15.5813 5.44883 14.6665 5.44883 13.7213C5.44883 12.776 5.61619 11.8613 5.89015 11.0075L5.88249 10.8257L1.60118 7.49512L1.4611 7.56186C0.532712 9.42189 0 11.5106 0 13.7213C0 15.932 0.532712 18.0206 1.4611 19.8806L5.90536 16.4351Z" fill="#FBBC05"/>
<path d="M13.6981 5.30558C16.2703 5.30558 18.0053 6.41853 18.9947 7.3486L22.8606 3.56757C20.4863 1.3569 17.3966 0 13.6981 0C8.34056 0 3.71362 3.07967 1.46106 7.56196L5.89011 11.0076C7.00128 7.69923 10.0757 5.30558 13.6981 5.30558Z" fill="#EB4335"/>
</svg>
