<?xml version="1.0" standalone="no"?>
<!DOCTYPE svg PUBLIC "-//W3C//DTD SVG 20010904//EN"
 "http://www.w3.org/TR/2001/REC-SVG-20010904/DTD/svg10.dtd">
<svg version="1.0" xmlns="http://www.w3.org/2000/svg"
 width="300.000000pt" height="94.000000pt" viewBox="0 0 300.000000 94.000000"
 preserveAspectRatio="xMidYMid meet">
<metadata>
Created by potrace 1.10, written by Peter Selinger 2001-2011
</metadata>
<g transform="translate(0.000000,94.000000) scale(0.100000,-0.100000)"
fill="#000000" stroke="none">
<path d="M373 933 c42 -7 32 -23 -15 -23 -64 0 -163 -26 -236 -63 -56 -28 -61
-32 -38 -35 14 -2 26 -6 26 -8 0 -3 -25 -28 -55 -56 l-55 -50 32 -21 c59 -41
92 -153 74 -252 -6 -30 -11 -35 -34 -35 -36 0 -52 -17 -52 -55 0 -38 16 -55
52 -55 22 0 28 -5 28 -22 1 -34 34 -100 66 -130 41 -38 75 -48 160 -48 l74 0
0 -42 0 -43 25 42 25 42 218 3 c218 3 219 3 259 30 43 29 83 96 83 140 0 22 5
27 27 30 56 6 55 108 -1 108 -26 0 -36 28 -36 107 0 48 -23 113 -39 113 -6 0
-11 -7 -11 -15 0 -9 -9 -34 -20 -56 l-21 -40 25 -30 c32 -37 40 -80 34 -175
-5 -80 -19 -109 -72 -148 -26 -20 -42 -21 -324 -24 -293 -3 -298 -2 -342 20
-67 34 -85 73 -85 183 0 99 15 139 68 179 40 29 131 29 173 -1 75 -53 233 -57
326 -8 34 17 71 28 102 30 46 2 53 6 94 50 39 44 43 52 37 84 -15 81 -92 191
-132 191 -13 0 -14 -3 -5 -12 27 -27 9 -27 -25 1 -21 17 -64 42 -95 56 -63 29
-177 47 -164 27 10 -16 -20 -15 -69 3 -22 8 -56 14 -75 13 -30 -1 -31 -2 -7
-5z m249 -52 c53 -23 121 -90 148 -148 11 -23 20 -47 20 -53 0 -5 5 -10 10
-10 6 0 10 11 10 24 0 14 5 28 11 32 18 11 7 -123 -11 -140 -8 -8 -30 -17 -47
-21 -28 -6 -33 -4 -33 13 0 11 -8 30 -19 43 l-18 23 3 -54 4 -55 -15 32 c-14
31 -54 67 -64 58 -2 -3 3 -13 12 -23 25 -28 21 -61 -8 -72 -38 -15 -72 4 -103
57 -65 113 -164 188 -263 200 -58 7 -55 23 4 23 81 0 201 -40 280 -94 20 -14
37 -20 37 -14 0 23 -96 104 -170 143 l-75 40 38 3 c52 4 153 -31 227 -79 33
-21 63 -39 65 -39 17 0 -55 85 -89 105 -32 20 -36 25 -19 25 12 0 41 -8 65
-19z m-428 -72 c-21 -17 -42 -36 -46 -42 -11 -18 -18 -4 -11 22 3 13 20 29 37
37 52 22 61 16 20 -17z m678 -74 c33 -60 36 -105 8 -130 -20 -18 -20 -18 -14
27 7 52 -11 96 -50 122 -34 22 -33 38 2 34 21 -2 33 -14 54 -53z m-526 -3 c41
-21 120 -99 110 -109 -3 -3 -17 2 -32 11 -33 22 -42 14 -20 -18 25 -39 19 -55
-8 -20 -29 35 -135 87 -218 105 -86 18 -72 33 25 26 79 -6 80 -6 37 7 -77 22
-78 26 -5 23 45 -3 84 -11 111 -25z m-169 -72 c25 0 146 -51 180 -76 37 -28
56 -30 73 -9 20 24 43 17 68 -21 12 -20 22 -40 22 -45 0 -18 -45 -8 -100 21
-69 38 -166 42 -215 10 -44 -29 -52 -25 -65 30 -7 27 -25 68 -42 91 -22 30
-26 44 -19 53 9 10 19 6 47 -20 19 -19 42 -34 51 -34z"/>
<path d="M1377 428 c1 -131 2 -132 24 -132 21 0 23 3 20 51 -3 67 12 95 47 91
26 -3 27 -6 32 -73 5 -66 6 -70 30 -69 25 0 25 0 22 74 -3 50 -9 81 -19 93
-17 18 -78 24 -88 7 -16 -26 -27 -7 -23 40 5 48 4 50 -21 50 l-26 0 2 -132z"/>
<path d="M2820 432 c0 -71 3 -131 6 -134 3 -3 14 -4 25 -1 16 5 19 14 19 63 0
63 14 84 52 78 21 -3 23 -8 26 -74 3 -70 3 -71 27 -66 23 4 25 9 25 58 0 56
-14 104 -33 116 -19 12 -72 9 -85 -4 -9 -9 -12 0 -12 40 0 49 -2 52 -25 52
l-25 0 0 -128z"/>
<path d="M1202 530 c-34 -21 -62 -71 -62 -111 0 -77 84 -140 160 -119 33 9 40
15 40 36 0 21 -4 25 -17 19 -39 -16 -54 -17 -82 -6 -53 22 -66 87 -26 126 26
27 72 33 106 15 16 -9 19 -7 19 15 0 46 -80 60 -138 25z"/>
<path d="M2022 533 c-65 -32 -85 -134 -37 -192 51 -60 151 -64 166 -7 7 24 5
27 -9 20 -71 -31 -132 0 -132 67 0 51 27 79 78 79 21 0 43 -5 50 -12 17 -17
24 -5 13 24 -15 40 -73 49 -129 21z"/>
<path d="M1842 505 c4 -19 1 -25 -13 -25 -12 0 -19 -7 -19 -20 0 -12 7 -20 18
-20 15 0 17 -10 17 -72 0 -67 1 -71 23 -73 21 -2 22 2 22 72 0 65 2 73 19 73
10 0 21 9 24 20 4 16 0 20 -19 20 -19 0 -24 5 -24 25 0 20 -5 25 -26 25 -23 0
-26 -3 -22 -25z"/>
<path d="M1612 458 c-47 -51 -32 -133 28 -158 29 -12 37 -12 64 4 19 11 32 14
34 7 2 -6 15 -11 28 -11 24 0 24 1 24 90 0 89 0 90 -25 90 -17 0 -25 -6 -25
-17 0 -15 -1 -15 -18 0 -27 25 -84 22 -110 -5z m107 -32 c16 -19 10 -66 -10
-79 -26 -16 -68 0 -75 29 -12 47 55 87 85 50z"/>
<path d="M2206 449 c-60 -71 1 -171 94 -153 73 15 102 113 47 160 -20 17 -40
24 -72 24 -36 0 -47 -5 -69 -31z m108 -25 c32 -31 11 -84 -32 -84 -35 0 -52
17 -52 52 0 43 53 64 84 32z"/>
<path d="M2430 460 c-46 -46 -36 -123 21 -154 33 -18 38 -18 67 -3 18 8 32 12
32 7 0 -4 11 -10 25 -12 l25 -5 0 93 c0 86 -2 94 -19 94 -11 0 -21 -6 -24 -12
-4 -10 -7 -10 -18 0 -21 19 -86 15 -109 -8z m101 -30 c22 -12 26 -59 7 -78
-15 -15 -61 -15 -76 0 -17 17 -15 54 4 72 18 19 38 20 65 6z"/>
<path d="M2663 456 c-54 -47 -26 -145 47 -161 41 -9 80 10 80 40 0 22 -2 24
-24 14 -58 -27 -111 27 -71 71 20 22 46 25 76 10 16 -9 19 -7 19 14 0 43 -81
51 -127 12z"/>
<path d="M254 406 c-42 -19 -64 -52 -64 -99 0 -54 52 -107 104 -107 44 0 119
60 100 80 -8 8 -19 4 -42 -14 -56 -48 -125 -23 -125 46 0 59 72 89 113 48 11
-11 29 -20 40 -20 18 0 19 3 10 20 -24 45 -89 67 -136 46z"/>
<path d="M785 413 c-30 -7 -73 -52 -80 -83 -13 -60 44 -130 105 -130 31 0 75
25 93 53 27 41 -5 45 -45 5 -25 -25 -70 -23 -96 5 -29 30 -28 62 3 92 29 30
54 32 88 5 27 -22 57 -27 57 -10 0 15 -50 60 -66 60 -7 0 -18 2 -26 4 -7 2
-22 1 -33 -1z"/>
<path d="M462 178 c2 -15 10 -23 23 -23 30 0 27 39 -3 43 -20 3 -23 0 -20 -20z"/>
<path d="M532 178 c4 -30 43 -33 43 -3 0 13 -8 21 -23 23 -20 3 -23 0 -20 -20z"/>
<path d="M603 184 c-3 -8 -1 -20 5 -26 16 -16 42 -2 42 22 0 24 -38 28 -47 4z"/>
</g>
</svg>
