<svg width="20" height="20" viewBox="0 0 20 20" fill="none" xmlns="http://www.w3.org/2000/svg">
<path d="M3.14288 3.14276C3.14288 2.41531 3.43186 1.71765 3.94625 1.20327C4.46063 0.688881 5.15829 0.399902 5.88574 0.399902C6.61319 0.399902 7.31085 0.688881 7.82523 1.20327C8.33962 1.71765 8.6286 2.41531 8.6286 3.14276C8.6286 3.87021 8.33962 4.56787 7.82523 5.08225C7.31085 5.59664 6.61319 5.88562 5.88574 5.88562C5.15829 5.88562 4.46063 5.59664 3.94625 5.08225C3.43186 4.56787 3.14288 3.87021 3.14288 3.14276ZM12.4398 5.3151L12.4974 5.35899C13.0793 5.79031 13.8082 5.97396 14.525 5.86986C15.2417 5.76576 15.8883 5.38236 16.3234 4.80333C16.7586 4.22431 16.947 3.49666 16.8477 2.77919C16.7483 2.06173 16.3692 1.41269 15.793 0.973724C15.2169 0.534758 14.4905 0.341502 13.7724 0.436132C13.0543 0.530761 12.4028 0.905593 11.96 1.47883C11.5172 2.05206 11.3192 2.77715 11.4091 3.49587C11.499 4.21458 11.8695 4.86857 12.4398 5.3151ZM7.62471 7.25705C7.79696 6.93087 8.03324 6.64279 8.3194 6.41004C8.60556 6.17729 8.93573 6.00464 9.29016 5.90244C9.64458 5.80024 10.016 5.77058 10.3821 5.81522C10.7483 5.85987 11.1017 5.97792 11.4211 6.1623C11.7406 6.34667 12.0196 6.5936 12.2415 6.8883C12.4633 7.183 12.6234 7.51941 12.7123 7.87742C12.8011 8.23544 12.8168 8.60769 12.7584 8.9719C12.7001 9.33612 12.5688 9.68483 12.3726 9.99716C11.9951 10.598 11.3994 11.0292 10.7106 11.2001C10.0219 11.3709 9.29371 11.2682 8.6791 10.9135C8.06449 10.5588 7.61127 9.97972 7.41465 9.29788C7.21804 8.61604 7.29333 7.88454 7.62471 7.25705ZM2.45717 7.25705H6.11888C5.87514 7.95312 5.82215 8.70175 5.96539 9.42523C6.10864 10.1487 6.44291 10.8207 6.93351 11.3713H6.57145C5.8644 11.3712 5.17458 11.5896 4.59644 11.9967C4.01829 12.4037 3.58006 12.9795 3.34174 13.6452C2.8814 13.4602 2.45038 13.2094 2.0622 12.9005C1.03088 12.0708 0.400024 10.8447 0.400024 9.31419C0.400024 8.7686 0.616759 8.24536 1.00255 7.85957C1.38834 7.47378 1.91158 7.25705 2.45717 7.25705ZM13.4286 11.3713C14.1355 11.3713 14.8251 11.5898 15.403 11.9968C15.9809 12.4039 16.4189 12.9796 16.6569 13.6452C17.1232 13.4545 17.5552 13.2063 17.9379 12.9005C18.9692 12.0708 19.6 10.8447 19.6 9.31419C19.6 8.7686 19.3833 8.24536 18.9975 7.85957C18.6117 7.47378 18.0885 7.25705 17.5429 7.25705H13.8812C14.032 7.6863 14.1143 8.14847 14.1143 8.62847C14.1156 9.64075 13.7424 10.6177 13.0665 11.3713H13.4286ZM15.3308 14.0154C15.4309 14.2568 15.4857 14.5229 15.4857 14.7999C15.4857 16.3304 14.8563 17.5565 13.8236 18.3862C12.8073 19.2022 11.4441 19.5999 10 19.5999C8.55591 19.5999 7.19271 19.2022 6.17648 18.3862C5.14517 17.5565 4.51431 16.3304 4.51431 14.7999C4.51359 14.5296 4.5663 14.2617 4.66943 14.0118C4.77255 13.7619 4.92405 13.5348 5.11522 13.3437C5.30639 13.1525 5.53345 13.001 5.78336 12.8979C6.03327 12.7948 6.3011 12.742 6.57145 12.7428H13.4286C13.8361 12.7427 14.2344 12.8636 14.573 13.0902C14.9117 13.3167 15.1754 13.6388 15.3308 14.0154Z" fill="#011526"/>
</svg>
