<svg width="56" height="44" viewBox="0 0 56 44" fill="none" xmlns="http://www.w3.org/2000/svg">
<path d="M23.904 0.0239944L15.456 30.744L12.64 19.224C16.3093 19.224 19.296 20.2907 21.6 22.424C23.904 24.5573 25.056 27.5013 25.056 31.256C25.056 34.9253 23.8613 37.912 21.472 40.216C19.168 42.4347 16.2667 43.544 12.768 43.544C9.184 43.544 6.19733 42.4347 3.808 40.216C1.504 37.912 0.352 34.9253 0.352 31.256C0.352 30.1467 0.437334 29.08 0.608 28.056C0.778667 26.9467 1.12 25.6667 1.632 24.216C2.144 22.7653 2.86933 20.8453 3.808 18.456L11.232 0.0239944H23.904ZM54.112 0.0239944L45.664 30.744L42.848 19.224C46.5173 19.224 49.504 20.2907 51.808 22.424C54.112 24.5573 55.264 27.5013 55.264 31.256C55.264 34.9253 54.0693 37.912 51.68 40.216C49.376 42.4347 46.4747 43.544 42.976 43.544C39.392 43.544 36.4053 42.4347 34.016 40.216C31.712 37.912 30.56 34.9253 30.56 31.256C30.56 30.1467 30.6453 29.08 30.816 28.056C30.9867 26.9467 31.328 25.6667 31.84 24.216C32.352 22.7653 33.0773 20.8453 34.016 18.456L41.44 0.0239944H54.112Z" fill="white"/>
</svg>
